# Blender 3.4.1
# www.blender.org
mtllib beanPixel3.mtl
o Bean_Pixel
v -0.393605 0.632936 -0.109208
v -0.384515 0.198423 -0.189170
v -0.002471 0.730385 0.210143
v -0.244767 0.812483 0.115083
v -0.288518 0.824779 -0.099861
v -0.064546 0.879007 0.191961
v -0.084705 0.892588 -0.128755
v -0.002462 0.725281 0.210648
v -0.287694 0.708542 0.120857
v -0.382723 0.674782 -0.057099
v -0.236450 0.132964 -0.000702
v -0.314754 0.178408 -0.060045
v -0.091199 0.680184 0.212636
v -0.086109 0.192966 0.071582
v -0.400999 0.555409 -0.281501
v -0.335533 0.371741 -0.465929
v -0.402029 0.197543 -0.386291
v -0.351371 0.185456 -0.488565
v -0.218195 0.788123 -0.294902
v -0.084710 0.818205 -0.331700
v -0.320786 0.627289 -0.414904
v -0.288396 0.457938 -0.530618
v -0.299356 0.191862 -0.590430
v -0.084556 0.719805 -0.444572
v -0.088514 0.555076 -0.580021
v -0.089123 0.213397 -0.682808
v -0.003066 0.008460 -0.688838
v -0.384281 -0.198276 -0.195019
v -0.390487 -0.654890 -0.076354
v -0.002455 -0.725383 0.210361
v -0.228631 -0.111214 -0.002711
v -0.315394 -0.160585 -0.069264
v -0.296974 -0.696882 0.114714
v -0.414814 -0.632833 -0.106873
v -0.086219 -0.153658 0.060112
v -0.091221 -0.680105 0.212341
v -0.002464 -0.730483 0.209850
v -0.244885 -0.812281 0.115066
v -0.288806 -0.824378 -0.099969
v -0.065631 -0.878941 0.191422
v -0.084707 -0.892512 -0.129100
v -0.402114 -0.196749 -0.392610
v -0.353497 -0.185282 -0.490574
v -0.400997 -0.554968 -0.281803
v -0.335536 -0.371587 -0.466083
v -0.299460 -0.157795 -0.601137
v -0.320796 -0.627876 -0.414930
v -0.288321 -0.457927 -0.530876
v -0.099522 -0.182353 -0.690180
v -0.084548 -0.719725 -0.444864
v -0.088514 -0.554945 -0.580256
v -0.003062 -0.008178 -0.689207
v -0.218215 -0.788094 -0.295179
v -0.084701 -0.818095 -0.331998
v 0.002252 0.730282 0.209842
v 0.079869 0.872132 0.185075
v 0.084982 0.887271 -0.128500
v 0.244817 0.812373 0.113752
v 0.289759 0.819375 -0.101791
v 0.002280 0.725237 0.210348
v 0.078984 0.701834 0.209799
v 0.082936 0.195641 0.064252
v 0.292365 0.702562 0.114972
v 0.389569 0.664182 -0.061650
v 0.232415 0.130477 -0.002920
v 0.314429 0.176720 -0.065901
v 0.390341 0.654661 -0.084549
v 0.381437 0.199940 -0.193120
v 0.084969 0.812983 -0.330855
v 0.219861 0.795574 -0.296093
v 0.084578 0.714831 -0.442701
v 0.089036 0.549524 -0.576637
v 0.076599 0.212912 -0.681551
v 0.314922 0.661424 -0.391702
v 0.287578 0.465351 -0.531060
v 0.299514 0.192695 -0.595740
v 0.003925 0.008432 -0.688513
v 0.400494 0.558109 -0.279030
v 0.336698 0.376569 -0.467936
v 0.408484 0.186711 -0.357408
v 0.354766 0.186167 -0.492278
v 0.002298 -0.725335 0.210061
v 0.080871 -0.154677 0.052980
v 0.079154 -0.702236 0.209534
v 0.224967 -0.109859 -0.004925
v 0.313903 -0.155754 -0.073983
v 0.287801 -0.709239 0.117584
v 0.382012 -0.664719 -0.055570
v 0.002271 -0.730382 0.209557
v 0.079839 -0.872177 0.184662
v 0.084981 -0.887261 -0.128859
v 0.244652 -0.812757 0.113016
v 0.289482 -0.819672 -0.102291
v 0.380760 -0.200155 -0.198932
v 0.393532 -0.633149 -0.113931
v 0.074045 -0.171337 -0.692260
v 0.084585 -0.714624 -0.443004
v 0.089053 -0.549329 -0.576872
v 0.299672 -0.156835 -0.606815
v 0.315070 -0.661028 -0.391656
v 0.287765 -0.464801 -0.531085
v 0.003939 -0.008187 -0.688882
v 0.084974 -0.812825 -0.331212
v 0.219874 -0.795490 -0.296466
v 0.408076 -0.188620 -0.362725
v 0.363420 -0.147524 -0.484375
v 0.400488 -0.558519 -0.279059
v 0.336702 -0.376414 -0.468092
vn -0.3385 0.9371 0.0857
vn -0.8013 -0.1562 0.5776
vn -0.3971 -0.2399 0.8858
vn -0.9028 -0.1117 0.4152
vn -0.8264 0.4969 0.2648
vn -0.4170 0.1738 0.8921
vn -0.0329 0.1075 0.9937
vn -0.8840 0.1324 -0.4484
vn -0.3711 0.5376 -0.7571
vn -0.3795 0.2459 -0.8919
vn -0.8802 0.1413 -0.4531
vn -0.8825 0.1344 -0.4506
vn -0.3445 0.6990 -0.6266
vn -0.7993 0.1702 0.5763
vn -0.3915 0.2411 0.8880
vn -0.3398 -0.9367 0.0849
vn -0.9274 0.1359 0.3487
vn -0.8392 -0.4810 0.2537
vn -0.4238 -0.1631 0.8910
vn -0.0338 -0.1086 0.9935
vn -0.8791 -0.1437 -0.4545
vn -0.3705 -0.5373 -0.7576
vn -0.3840 -0.2507 -0.8887
vn -0.8802 -0.1411 -0.4531
vn -0.8771 -0.1418 -0.4588
vn -0.3436 -0.6996 -0.6264
vn 0.3332 0.9402 0.0709
vn 0.7920 -0.1686 0.5868
vn 0.3601 -0.2390 0.9018
vn 0.9082 -0.1287 0.3983
vn 0.8263 0.5000 0.2595
vn 0.4172 0.1525 0.8959
vn 0.0532 0.1420 0.9884
vn 0.3477 0.5515 -0.7583
vn 0.3443 0.2515 -0.9046
vn 0.9114 0.1145 -0.3952
vn 0.8683 0.1891 -0.4586
vn 0.8737 0.1458 -0.4640
vn 0.2890 0.7005 -0.6525
vn 0.7867 0.1685 0.5939
vn 0.3579 0.2387 0.9027
vn 0.3321 -0.9406 0.0705
vn 0.9158 0.1207 0.3831
vn 0.8355 -0.4885 0.2517
vn 0.4149 -0.1608 0.8956
vn 0.0527 -0.1431 0.9883
vn 0.3489 -0.5510 -0.7581
vn 0.3390 -0.2511 -0.9067
vn 0.9077 -0.1192 -0.4024
vn 0.8682 -0.1892 -0.4587
vn 0.8773 -0.1417 -0.4585
vn 0.2897 -0.6994 -0.6534
vn 0.0397 0.9982 0.0443
vn 0.0486 -0.2765 0.9598
vn 0.0543 0.1432 0.9882
vn 0.0157 0.0182 0.9997
vn 0.0646 0.0991 0.9930
vn 0.0309 0.6321 -0.7743
vn 0.0181 0.2924 -0.9561
vn 0.0092 0.0320 -0.9994
vn 0.0279 0.7524 -0.6581
vn 0.0472 0.2757 0.9601
vn 0.0390 -0.9983 0.0443
vn 0.0154 -0.0186 0.9997
vn 0.0530 -0.1448 0.9880
vn 0.0637 -0.0996 0.9930
vn 0.0312 -0.6318 -0.7745
vn 0.0171 -0.2869 -0.9578
vn -0.0105 0.0137 -0.9999
vn 0.0282 -0.7523 -0.6583
vn -0.6059 -0.0228 0.7952
vn -0.4176 -0.0262 0.9083
vn -0.8781 -0.0093 0.4783
vn 0.6112 -0.0224 0.7912
vn 0.3902 -0.0270 0.9203
vn 0.8829 -0.0104 0.4695
vn -0.8959 0.0074 -0.4442
vn -0.4042 0.0279 -0.9143
vn -0.0244 0.0194 -0.9995
vn -0.8953 0.0106 -0.4453
vn 0.3569 0.0266 -0.9338
vn 0.9342 0.0096 -0.3567
vn 0.0171 0.0275 -0.9995
vn 0.8846 0.0136 -0.4662
vn -0.9970 -0.0272 0.0730
vn -0.3199 0.8965 -0.3066
vn -0.7809 0.5621 -0.2724
vn -0.8305 0.5170 -0.2074
vn -0.9966 0.0279 0.0771
vn -0.3204 -0.8965 -0.3061
vn -0.7497 -0.5930 -0.2938
vn -0.9225 -0.3203 -0.2154
vn 0.2809 0.9190 -0.2768
vn 0.9935 -0.0262 0.1110
vn 0.7819 0.5735 -0.2446
vn 0.8480 0.4919 -0.1974
vn 0.2801 -0.9189 -0.2777
vn 0.9933 0.0298 0.1113
vn 0.7972 -0.5564 -0.2345
vn 0.8303 -0.5268 -0.1817
vn -0.9960 -0.0016 0.0892
vn 0.9865 -0.0037 0.1635
vn 0.0303 0.9384 -0.3442
vn 0.0301 -0.9383 -0.3446
vn 0.0431 -0.0327 0.9985
vn 0.0465 0.0222 -0.9987
s 0
usemtl Material.002
f 4//1 6//1 7//1 5//1
f 9//2 10//2 12//2 11//2
f 9//3 11//3 14//3 13//3
f 1//4 2//4 12//4 10//4
f 4//5 5//5 10//5 9//5
f 4//6 9//6 13//6 6//6
f 3//7 6//7 13//7 8//7
f 15//8 16//8 18//8 17//8
f 21//9 24//9 25//9 22//9
f 25//10 26//10 23//10 22//10
f 15//11 21//11 22//11 16//11
f 22//12 23//12 18//12 16//12
f 20//13 24//13 21//13 19//13
f 31//14 32//14 34//14 33//14
f 31//15 33//15 36//15 35//15
f 39//16 41//16 40//16 38//16
f 28//17 29//17 34//17 32//17
f 33//18 34//18 39//18 38//18
f 33//19 38//19 40//19 36//19
f 30//20 36//20 40//20 37//20
f 42//21 43//21 45//21 44//21
f 48//22 51//22 50//22 47//22
f 49//23 51//23 48//23 46//23
f 45//24 48//24 47//24 44//24
f 46//25 48//25 45//25 43//25
f 50//26 54//26 53//26 47//26
f 56//27 58//27 59//27 57//27
f 65//28 66//28 64//28 63//28
f 61//29 62//29 65//29 63//29
f 64//30 66//30 68//30 67//30
f 63//31 64//31 59//31 58//31
f 56//32 61//32 63//32 58//32
f 60//33 61//33 56//33 55//33
f 71//34 74//34 75//34 72//34
f 75//35 76//35 73//35 72//35
f 80//36 81//36 79//36 78//36
f 74//37 78//37 79//37 75//37
f 79//38 81//38 76//38 75//38
f 70//39 74//39 71//39 69//39
f 87//40 88//40 86//40 85//40
f 83//41 84//41 87//41 85//41
f 91//42 93//42 92//42 90//42
f 86//43 88//43 95//43 94//43
f 92//44 93//44 88//44 87//44
f 84//45 90//45 92//45 87//45
f 89//46 90//46 84//46 82//46
f 98//47 101//47 100//47 97//47
f 99//48 101//48 98//48 96//48
f 107//49 108//49 106//49 105//49
f 101//50 108//50 107//50 100//50
f 106//51 108//51 101//51 99//51
f 100//52 104//52 103//52 97//52
f 6//53 56//53 57//53 7//53
f 13//54 14//54 62//54 61//54
f 3//55 55//55 56//55 6//55
f 13//56 61//56 60//56 8//56
f 3//57 8//57 60//57 55//57
f 24//58 71//58 72//58 25//58
f 72//59 73//59 26//59 25//59
f 26//60 73//60 77//60 27//60
f 69//61 71//61 24//61 20//61
f 35//62 36//62 84//62 83//62
f 41//63 91//63 90//63 40//63
f 30//64 82//64 84//64 36//64
f 40//65 90//65 89//65 37//65
f 30//66 37//66 89//66 82//66
f 51//67 98//67 97//67 50//67
f 96//68 98//68 51//68 49//68
f 52//69 102//69 96//69 49//69
f 97//70 103//70 54//70 50//70
f 11//71 12//71 32//71 31//71
f 11//72 31//72 35//72 14//72
f 2//73 28//73 32//73 12//73
f 85//74 86//74 66//74 65//74
f 62//75 83//75 85//75 65//75
f 66//76 86//76 94//76 68//76
f 17//77 18//77 43//77 42//77
f 26//78 49//78 46//78 23//78
f 26//79 27//79 52//79 49//79
f 23//80 46//80 43//80 18//80
f 76//81 99//81 96//81 73//81
f 105//82 106//82 81//82 80//82
f 96//83 102//83 77//83 73//83
f 81//84 106//84 99//84 76//84
f 1//85 15//85 17//85 2//85
f 5//86 7//86 20//86 19//86
f 5//87 19//87 21//87 10//87
f 1//88 10//88 21//88 15//88
f 28//89 42//89 44//89 29//89
f 53//90 54//90 41//90 39//90
f 34//91 47//91 53//91 39//91
f 44//92 47//92 34//92 29//92
f 57//93 59//93 70//93 69//93
f 68//94 80//94 78//94 67//94
f 64//95 74//95 70//95 59//95
f 64//96 67//96 78//96 74//96
f 103//97 104//97 93//97 91//97
f 95//98 107//98 105//98 94//98
f 93//99 104//99 100//99 88//99
f 100//100 107//100 95//100 88//100
f 2//101 17//101 42//101 28//101
f 94//102 105//102 80//102 68//102
f 7//103 57//103 69//103 20//103
f 54//104 103//104 91//104 41//104
f 14//105 35//105 83//105 62//105
f 77//106 102//106 52//106 27//106
